<mxfile host="app.diagrams.net" modified="2024-05-03T05:25:36.624Z" agent="Mozilla/5.0 (Windows NT 10.0; Win64; x64) AppleWebKit/537.36 (KHTML, like Gecko) Chrome/124.0.0.0 Safari/537.36" etag="eGtg99CVSH0njOVJ5mgA" version="24.3.1" type="device">
  <diagram id="C5RBs43oDa-KdzZeNtuy" name="Page-1">
    <mxGraphModel dx="1687" dy="918" grid="1" gridSize="10" guides="1" tooltips="1" connect="1" arrows="1" fold="1" page="1" pageScale="1" pageWidth="827" pageHeight="1169" math="0" shadow="0">
      <root>
        <mxCell id="WIyWlLk6GJQsqaUBKTNV-0" />
        <mxCell id="WIyWlLk6GJQsqaUBKTNV-1" parent="WIyWlLk6GJQsqaUBKTNV-0" />
        <mxCell id="b1ORVTBcM8QreffQEjI8-5" style="edgeStyle=orthogonalEdgeStyle;rounded=0;orthogonalLoop=1;jettySize=auto;html=1;" parent="WIyWlLk6GJQsqaUBKTNV-1" source="WIyWlLk6GJQsqaUBKTNV-3" target="b1ORVTBcM8QreffQEjI8-4" edge="1">
          <mxGeometry relative="1" as="geometry" />
        </mxCell>
        <mxCell id="WIyWlLk6GJQsqaUBKTNV-3" value="Начало" style="rounded=1;whiteSpace=wrap;html=1;fontSize=12;glass=0;strokeWidth=1;shadow=0;" parent="WIyWlLk6GJQsqaUBKTNV-1" vertex="1">
          <mxGeometry x="100" width="80" height="30" as="geometry" />
        </mxCell>
        <mxCell id="b1ORVTBcM8QreffQEjI8-7" style="edgeStyle=orthogonalEdgeStyle;rounded=0;orthogonalLoop=1;jettySize=auto;html=1;" parent="WIyWlLk6GJQsqaUBKTNV-1" source="b1ORVTBcM8QreffQEjI8-4" target="b1ORVTBcM8QreffQEjI8-6" edge="1">
          <mxGeometry relative="1" as="geometry" />
        </mxCell>
        <mxCell id="b1ORVTBcM8QreffQEjI8-4" value="Объявление&amp;nbsp; переменных сообщений и буфера" style="rounded=0;whiteSpace=wrap;html=1;" parent="WIyWlLk6GJQsqaUBKTNV-1" vertex="1">
          <mxGeometry x="50" y="50" width="180" height="50" as="geometry" />
        </mxCell>
        <mxCell id="sDPCMtmViMHlwdPmjDIe-4" style="edgeStyle=orthogonalEdgeStyle;rounded=0;orthogonalLoop=1;jettySize=auto;html=1;" edge="1" parent="WIyWlLk6GJQsqaUBKTNV-1" source="b1ORVTBcM8QreffQEjI8-6" target="sDPCMtmViMHlwdPmjDIe-0">
          <mxGeometry relative="1" as="geometry" />
        </mxCell>
        <mxCell id="b1ORVTBcM8QreffQEjI8-6" value="Загрузка регистров" style="rounded=0;whiteSpace=wrap;html=1;" parent="WIyWlLk6GJQsqaUBKTNV-1" vertex="1">
          <mxGeometry x="100" y="120" width="80" height="40" as="geometry" />
        </mxCell>
        <mxCell id="sDPCMtmViMHlwdPmjDIe-10" style="edgeStyle=orthogonalEdgeStyle;rounded=0;orthogonalLoop=1;jettySize=auto;html=1;" edge="1" parent="WIyWlLk6GJQsqaUBKTNV-1" source="sDPCMtmViMHlwdPmjDIe-0" target="sDPCMtmViMHlwdPmjDIe-9">
          <mxGeometry relative="1" as="geometry" />
        </mxCell>
        <mxCell id="sDPCMtmViMHlwdPmjDIe-0" value="Вывод приветственной информации" style="shape=parallelogram;perimeter=parallelogramPerimeter;whiteSpace=wrap;html=1;fixedSize=1;" vertex="1" parent="WIyWlLk6GJQsqaUBKTNV-1">
          <mxGeometry x="60" y="180" width="160" height="40" as="geometry" />
        </mxCell>
        <mxCell id="sDPCMtmViMHlwdPmjDIe-13" style="edgeStyle=orthogonalEdgeStyle;rounded=0;orthogonalLoop=1;jettySize=auto;html=1;" edge="1" parent="WIyWlLk6GJQsqaUBKTNV-1" source="sDPCMtmViMHlwdPmjDIe-2" target="sDPCMtmViMHlwdPmjDIe-12">
          <mxGeometry relative="1" as="geometry" />
        </mxCell>
        <mxCell id="sDPCMtmViMHlwdPmjDIe-2" value="Ввод и запоминание 16го числа" style="rounded=0;whiteSpace=wrap;html=1;" vertex="1" parent="WIyWlLk6GJQsqaUBKTNV-1">
          <mxGeometry x="80" y="290" width="120" height="30" as="geometry" />
        </mxCell>
        <mxCell id="sDPCMtmViMHlwdPmjDIe-6" value="HEXADR" style="rounded=1;whiteSpace=wrap;html=1;" vertex="1" parent="WIyWlLk6GJQsqaUBKTNV-1">
          <mxGeometry x="240" y="290" width="60" height="30" as="geometry" />
        </mxCell>
        <mxCell id="sDPCMtmViMHlwdPmjDIe-7" value="" style="endArrow=classic;startArrow=classic;html=1;rounded=0;" edge="1" parent="WIyWlLk6GJQsqaUBKTNV-1" source="sDPCMtmViMHlwdPmjDIe-2" target="sDPCMtmViMHlwdPmjDIe-6">
          <mxGeometry width="50" height="50" relative="1" as="geometry">
            <mxPoint x="92.5" y="340" as="sourcePoint" />
            <mxPoint x="142.5" y="290" as="targetPoint" />
          </mxGeometry>
        </mxCell>
        <mxCell id="sDPCMtmViMHlwdPmjDIe-11" style="edgeStyle=orthogonalEdgeStyle;rounded=0;orthogonalLoop=1;jettySize=auto;html=1;" edge="1" parent="WIyWlLk6GJQsqaUBKTNV-1" source="sDPCMtmViMHlwdPmjDIe-9" target="sDPCMtmViMHlwdPmjDIe-2">
          <mxGeometry relative="1" as="geometry" />
        </mxCell>
        <mxCell id="sDPCMtmViMHlwdPmjDIe-24" style="edgeStyle=orthogonalEdgeStyle;rounded=0;orthogonalLoop=1;jettySize=auto;html=1;entryX=0.5;entryY=0;entryDx=0;entryDy=0;" edge="1" parent="WIyWlLk6GJQsqaUBKTNV-1" source="sDPCMtmViMHlwdPmjDIe-9" target="sDPCMtmViMHlwdPmjDIe-23">
          <mxGeometry relative="1" as="geometry" />
        </mxCell>
        <mxCell id="sDPCMtmViMHlwdPmjDIe-9" value="METLOOP" style="shape=hexagon;perimeter=hexagonPerimeter2;whiteSpace=wrap;html=1;fixedSize=1;" vertex="1" parent="WIyWlLk6GJQsqaUBKTNV-1">
          <mxGeometry x="80" y="240" width="120" height="30" as="geometry" />
        </mxCell>
        <mxCell id="sDPCMtmViMHlwdPmjDIe-17" style="edgeStyle=orthogonalEdgeStyle;rounded=0;orthogonalLoop=1;jettySize=auto;html=1;" edge="1" parent="WIyWlLk6GJQsqaUBKTNV-1" source="sDPCMtmViMHlwdPmjDIe-12" target="sDPCMtmViMHlwdPmjDIe-16">
          <mxGeometry relative="1" as="geometry" />
        </mxCell>
        <mxCell id="sDPCMtmViMHlwdPmjDIe-12" value="Вывод&lt;div&gt;16го числа&lt;/div&gt;" style="shape=parallelogram;perimeter=parallelogramPerimeter;whiteSpace=wrap;html=1;fixedSize=1;" vertex="1" parent="WIyWlLk6GJQsqaUBKTNV-1">
          <mxGeometry x="80" y="340" width="120" height="30" as="geometry" />
        </mxCell>
        <mxCell id="sDPCMtmViMHlwdPmjDIe-22" style="edgeStyle=orthogonalEdgeStyle;rounded=0;orthogonalLoop=1;jettySize=auto;html=1;entryX=0;entryY=0.5;entryDx=0;entryDy=0;" edge="1" parent="WIyWlLk6GJQsqaUBKTNV-1" source="sDPCMtmViMHlwdPmjDIe-16" target="sDPCMtmViMHlwdPmjDIe-9">
          <mxGeometry relative="1" as="geometry">
            <Array as="points">
              <mxPoint x="140" y="440" />
              <mxPoint x="60" y="440" />
              <mxPoint x="60" y="255" />
            </Array>
          </mxGeometry>
        </mxCell>
        <mxCell id="sDPCMtmViMHlwdPmjDIe-16" value="Вывод&lt;div&gt;10го числа&lt;/div&gt;" style="shape=parallelogram;perimeter=parallelogramPerimeter;whiteSpace=wrap;html=1;fixedSize=1;" vertex="1" parent="WIyWlLk6GJQsqaUBKTNV-1">
          <mxGeometry x="80" y="390" width="120" height="30" as="geometry" />
        </mxCell>
        <mxCell id="sDPCMtmViMHlwdPmjDIe-18" value="PRINTHEX" style="rounded=1;whiteSpace=wrap;html=1;" vertex="1" parent="WIyWlLk6GJQsqaUBKTNV-1">
          <mxGeometry x="240" y="340" width="70" height="30" as="geometry" />
        </mxCell>
        <mxCell id="sDPCMtmViMHlwdPmjDIe-19" value="DECPRINT" style="rounded=1;whiteSpace=wrap;html=1;" vertex="1" parent="WIyWlLk6GJQsqaUBKTNV-1">
          <mxGeometry x="240" y="390" width="70" height="30" as="geometry" />
        </mxCell>
        <mxCell id="sDPCMtmViMHlwdPmjDIe-20" value="" style="endArrow=classic;startArrow=classic;html=1;rounded=0;" edge="1" parent="WIyWlLk6GJQsqaUBKTNV-1" source="sDPCMtmViMHlwdPmjDIe-12" target="sDPCMtmViMHlwdPmjDIe-18">
          <mxGeometry width="50" height="50" relative="1" as="geometry">
            <mxPoint x="50" y="410" as="sourcePoint" />
            <mxPoint x="100" y="360" as="targetPoint" />
          </mxGeometry>
        </mxCell>
        <mxCell id="sDPCMtmViMHlwdPmjDIe-21" value="" style="endArrow=classic;startArrow=classic;html=1;rounded=0;" edge="1" parent="WIyWlLk6GJQsqaUBKTNV-1" source="sDPCMtmViMHlwdPmjDIe-16" target="sDPCMtmViMHlwdPmjDIe-19">
          <mxGeometry width="50" height="50" relative="1" as="geometry">
            <mxPoint x="50" y="410" as="sourcePoint" />
            <mxPoint x="100" y="360" as="targetPoint" />
          </mxGeometry>
        </mxCell>
        <mxCell id="sDPCMtmViMHlwdPmjDIe-23" value="1" style="ellipse;whiteSpace=wrap;html=1;aspect=fixed;" vertex="1" parent="WIyWlLk6GJQsqaUBKTNV-1">
          <mxGeometry x="322.5" y="290" width="30" height="30" as="geometry" />
        </mxCell>
        <mxCell id="sDPCMtmViMHlwdPmjDIe-29" style="edgeStyle=orthogonalEdgeStyle;rounded=0;orthogonalLoop=1;jettySize=auto;html=1;" edge="1" parent="WIyWlLk6GJQsqaUBKTNV-1" source="sDPCMtmViMHlwdPmjDIe-25" target="sDPCMtmViMHlwdPmjDIe-28">
          <mxGeometry relative="1" as="geometry" />
        </mxCell>
        <mxCell id="sDPCMtmViMHlwdPmjDIe-25" value="1" style="ellipse;whiteSpace=wrap;html=1;aspect=fixed;" vertex="1" parent="WIyWlLk6GJQsqaUBKTNV-1">
          <mxGeometry x="267.5" y="70" width="30" height="30" as="geometry" />
        </mxCell>
        <mxCell id="sDPCMtmViMHlwdPmjDIe-26" value="Конец" style="rounded=1;whiteSpace=wrap;html=1;fontSize=12;glass=0;strokeWidth=1;shadow=0;" vertex="1" parent="WIyWlLk6GJQsqaUBKTNV-1">
          <mxGeometry x="242.5" y="180" width="80" height="30" as="geometry" />
        </mxCell>
        <mxCell id="sDPCMtmViMHlwdPmjDIe-30" style="edgeStyle=orthogonalEdgeStyle;rounded=0;orthogonalLoop=1;jettySize=auto;html=1;" edge="1" parent="WIyWlLk6GJQsqaUBKTNV-1" source="sDPCMtmViMHlwdPmjDIe-28" target="sDPCMtmViMHlwdPmjDIe-26">
          <mxGeometry relative="1" as="geometry" />
        </mxCell>
        <mxCell id="sDPCMtmViMHlwdPmjDIe-28" value="Вывод конечной информации" style="shape=parallelogram;perimeter=parallelogramPerimeter;whiteSpace=wrap;html=1;fixedSize=1;" vertex="1" parent="WIyWlLk6GJQsqaUBKTNV-1">
          <mxGeometry x="202.5" y="120" width="160" height="40" as="geometry" />
        </mxCell>
        <mxCell id="sDPCMtmViMHlwdPmjDIe-50" style="edgeStyle=orthogonalEdgeStyle;rounded=0;orthogonalLoop=1;jettySize=auto;html=1;" edge="1" parent="WIyWlLk6GJQsqaUBKTNV-1" source="sDPCMtmViMHlwdPmjDIe-31" target="sDPCMtmViMHlwdPmjDIe-49">
          <mxGeometry relative="1" as="geometry" />
        </mxCell>
        <mxCell id="sDPCMtmViMHlwdPmjDIe-31" value="Начало&lt;div&gt;HEXADR&lt;/div&gt;" style="rounded=1;whiteSpace=wrap;html=1;fontSize=12;glass=0;strokeWidth=1;shadow=0;" vertex="1" parent="WIyWlLk6GJQsqaUBKTNV-1">
          <mxGeometry x="470" width="80" height="30" as="geometry" />
        </mxCell>
        <mxCell id="sDPCMtmViMHlwdPmjDIe-35" style="edgeStyle=orthogonalEdgeStyle;rounded=0;orthogonalLoop=1;jettySize=auto;html=1;" edge="1" parent="WIyWlLk6GJQsqaUBKTNV-1" source="sDPCMtmViMHlwdPmjDIe-32" target="sDPCMtmViMHlwdPmjDIe-34">
          <mxGeometry relative="1" as="geometry" />
        </mxCell>
        <mxCell id="sDPCMtmViMHlwdPmjDIe-66" style="edgeStyle=orthogonalEdgeStyle;rounded=0;orthogonalLoop=1;jettySize=auto;html=1;entryX=0.5;entryY=0;entryDx=0;entryDy=0;" edge="1" parent="WIyWlLk6GJQsqaUBKTNV-1" source="sDPCMtmViMHlwdPmjDIe-32" target="sDPCMtmViMHlwdPmjDIe-65">
          <mxGeometry relative="1" as="geometry" />
        </mxCell>
        <mxCell id="sDPCMtmViMHlwdPmjDIe-32" value="MVVOD" style="shape=hexagon;perimeter=hexagonPerimeter2;whiteSpace=wrap;html=1;fixedSize=1;" vertex="1" parent="WIyWlLk6GJQsqaUBKTNV-1">
          <mxGeometry x="470" y="190" width="80" height="30" as="geometry" />
        </mxCell>
        <mxCell id="sDPCMtmViMHlwdPmjDIe-39" style="edgeStyle=orthogonalEdgeStyle;rounded=0;orthogonalLoop=1;jettySize=auto;html=1;" edge="1" parent="WIyWlLk6GJQsqaUBKTNV-1" source="sDPCMtmViMHlwdPmjDIe-34" target="sDPCMtmViMHlwdPmjDIe-38">
          <mxGeometry relative="1" as="geometry" />
        </mxCell>
        <mxCell id="sDPCMtmViMHlwdPmjDIe-34" value="Ввод символа" style="shape=parallelogram;perimeter=parallelogramPerimeter;whiteSpace=wrap;html=1;fixedSize=1;" vertex="1" parent="WIyWlLk6GJQsqaUBKTNV-1">
          <mxGeometry x="450" y="240" width="120" height="20" as="geometry" />
        </mxCell>
        <mxCell id="sDPCMtmViMHlwdPmjDIe-36" value="GETSIMB" style="rounded=1;whiteSpace=wrap;html=1;" vertex="1" parent="WIyWlLk6GJQsqaUBKTNV-1">
          <mxGeometry x="590" y="240" width="60" height="20" as="geometry" />
        </mxCell>
        <mxCell id="sDPCMtmViMHlwdPmjDIe-37" value="" style="endArrow=classic;startArrow=classic;html=1;rounded=0;" edge="1" parent="WIyWlLk6GJQsqaUBKTNV-1" source="sDPCMtmViMHlwdPmjDIe-34" target="sDPCMtmViMHlwdPmjDIe-36">
          <mxGeometry width="50" height="50" relative="1" as="geometry">
            <mxPoint x="550" y="200" as="sourcePoint" />
            <mxPoint x="600" y="150" as="targetPoint" />
          </mxGeometry>
        </mxCell>
        <mxCell id="sDPCMtmViMHlwdPmjDIe-41" style="edgeStyle=orthogonalEdgeStyle;rounded=0;orthogonalLoop=1;jettySize=auto;html=1;entryX=0.5;entryY=0;entryDx=0;entryDy=0;" edge="1" parent="WIyWlLk6GJQsqaUBKTNV-1" source="sDPCMtmViMHlwdPmjDIe-38" target="sDPCMtmViMHlwdPmjDIe-40">
          <mxGeometry relative="1" as="geometry" />
        </mxCell>
        <mxCell id="sDPCMtmViMHlwdPmjDIe-45" style="edgeStyle=orthogonalEdgeStyle;rounded=0;orthogonalLoop=1;jettySize=auto;html=1;" edge="1" parent="WIyWlLk6GJQsqaUBKTNV-1" source="sDPCMtmViMHlwdPmjDIe-38" target="sDPCMtmViMHlwdPmjDIe-44">
          <mxGeometry relative="1" as="geometry" />
        </mxCell>
        <mxCell id="sDPCMtmViMHlwdPmjDIe-38" value="Символ&amp;nbsp;&lt;div&gt;= &#39;*&#39;?&lt;/div&gt;" style="rhombus;whiteSpace=wrap;html=1;" vertex="1" parent="WIyWlLk6GJQsqaUBKTNV-1">
          <mxGeometry x="470" y="280" width="80" height="50" as="geometry" />
        </mxCell>
        <mxCell id="sDPCMtmViMHlwdPmjDIe-40" value="1" style="ellipse;whiteSpace=wrap;html=1;aspect=fixed;" vertex="1" parent="WIyWlLk6GJQsqaUBKTNV-1">
          <mxGeometry x="605" y="330" width="30" height="30" as="geometry" />
        </mxCell>
        <mxCell id="sDPCMtmViMHlwdPmjDIe-42" value="Да" style="text;html=1;align=center;verticalAlign=middle;whiteSpace=wrap;rounded=0;" vertex="1" parent="WIyWlLk6GJQsqaUBKTNV-1">
          <mxGeometry x="550" y="290" width="30" height="10" as="geometry" />
        </mxCell>
        <mxCell id="sDPCMtmViMHlwdPmjDIe-43" value="Нет" style="text;html=1;align=center;verticalAlign=middle;whiteSpace=wrap;rounded=0;" vertex="1" parent="WIyWlLk6GJQsqaUBKTNV-1">
          <mxGeometry x="520" y="330" width="30" height="10" as="geometry" />
        </mxCell>
        <mxCell id="sDPCMtmViMHlwdPmjDIe-60" style="edgeStyle=orthogonalEdgeStyle;rounded=0;orthogonalLoop=1;jettySize=auto;html=1;" edge="1" parent="WIyWlLk6GJQsqaUBKTNV-1" source="sDPCMtmViMHlwdPmjDIe-44" target="sDPCMtmViMHlwdPmjDIe-59">
          <mxGeometry relative="1" as="geometry" />
        </mxCell>
        <mxCell id="sDPCMtmViMHlwdPmjDIe-111" style="edgeStyle=orthogonalEdgeStyle;rounded=0;orthogonalLoop=1;jettySize=auto;html=1;entryX=0.5;entryY=0;entryDx=0;entryDy=0;" edge="1" parent="WIyWlLk6GJQsqaUBKTNV-1" source="sDPCMtmViMHlwdPmjDIe-44" target="sDPCMtmViMHlwdPmjDIe-54">
          <mxGeometry relative="1" as="geometry" />
        </mxCell>
        <mxCell id="sDPCMtmViMHlwdPmjDIe-44" value="Символ&amp;nbsp;&lt;span style=&quot;background-color: initial;&quot;&gt;принадлежит&amp;nbsp;&lt;/span&gt;&lt;div&gt;&lt;span style=&quot;background-color: initial;&quot;&gt;16-й СС?&lt;/span&gt;&lt;/div&gt;" style="rhombus;whiteSpace=wrap;html=1;" vertex="1" parent="WIyWlLk6GJQsqaUBKTNV-1">
          <mxGeometry x="425" y="350" width="170" height="70" as="geometry" />
        </mxCell>
        <mxCell id="sDPCMtmViMHlwdPmjDIe-47" value="Нет" style="text;html=1;align=center;verticalAlign=middle;whiteSpace=wrap;rounded=0;" vertex="1" parent="WIyWlLk6GJQsqaUBKTNV-1">
          <mxGeometry x="590" y="370" width="30" height="10" as="geometry" />
        </mxCell>
        <mxCell id="sDPCMtmViMHlwdPmjDIe-48" value="Да" style="text;html=1;align=center;verticalAlign=middle;whiteSpace=wrap;rounded=0;" vertex="1" parent="WIyWlLk6GJQsqaUBKTNV-1">
          <mxGeometry x="470" y="420" width="30" height="10" as="geometry" />
        </mxCell>
        <mxCell id="sDPCMtmViMHlwdPmjDIe-49" value="2" style="ellipse;whiteSpace=wrap;html=1;aspect=fixed;" vertex="1" parent="WIyWlLk6GJQsqaUBKTNV-1">
          <mxGeometry x="495" y="50" width="30" height="30" as="geometry" />
        </mxCell>
        <mxCell id="sDPCMtmViMHlwdPmjDIe-63" style="edgeStyle=orthogonalEdgeStyle;rounded=0;orthogonalLoop=1;jettySize=auto;html=1;" edge="1" parent="WIyWlLk6GJQsqaUBKTNV-1" source="sDPCMtmViMHlwdPmjDIe-51" target="sDPCMtmViMHlwdPmjDIe-62">
          <mxGeometry relative="1" as="geometry" />
        </mxCell>
        <mxCell id="sDPCMtmViMHlwdPmjDIe-51" value="2" style="ellipse;whiteSpace=wrap;html=1;aspect=fixed;" vertex="1" parent="WIyWlLk6GJQsqaUBKTNV-1">
          <mxGeometry x="495" y="90" width="30" height="30" as="geometry" />
        </mxCell>
        <mxCell id="sDPCMtmViMHlwdPmjDIe-57" style="edgeStyle=orthogonalEdgeStyle;rounded=0;orthogonalLoop=1;jettySize=auto;html=1;" edge="1" parent="WIyWlLk6GJQsqaUBKTNV-1" source="sDPCMtmViMHlwdPmjDIe-54" target="sDPCMtmViMHlwdPmjDIe-56">
          <mxGeometry relative="1" as="geometry" />
        </mxCell>
        <mxCell id="sDPCMtmViMHlwdPmjDIe-54" value="Сообщение&amp;nbsp;&lt;div&gt;об ошибке&lt;/div&gt;" style="shape=parallelogram;perimeter=parallelogramPerimeter;whiteSpace=wrap;html=1;fixedSize=1;" vertex="1" parent="WIyWlLk6GJQsqaUBKTNV-1">
          <mxGeometry x="655" y="405" width="100" height="30" as="geometry" />
        </mxCell>
        <mxCell id="sDPCMtmViMHlwdPmjDIe-56" value="2" style="ellipse;whiteSpace=wrap;html=1;aspect=fixed;" vertex="1" parent="WIyWlLk6GJQsqaUBKTNV-1">
          <mxGeometry x="690" y="455" width="30" height="30" as="geometry" />
        </mxCell>
        <mxCell id="sDPCMtmViMHlwdPmjDIe-61" style="edgeStyle=orthogonalEdgeStyle;rounded=0;orthogonalLoop=1;jettySize=auto;html=1;entryX=0;entryY=0.5;entryDx=0;entryDy=0;" edge="1" parent="WIyWlLk6GJQsqaUBKTNV-1" source="sDPCMtmViMHlwdPmjDIe-59" target="sDPCMtmViMHlwdPmjDIe-32">
          <mxGeometry relative="1" as="geometry">
            <Array as="points">
              <mxPoint x="510" y="490" />
              <mxPoint x="410" y="490" />
              <mxPoint x="410" y="205" />
            </Array>
          </mxGeometry>
        </mxCell>
        <mxCell id="sDPCMtmViMHlwdPmjDIe-59" value="Вывод и запоминание 16го числа" style="rounded=0;whiteSpace=wrap;html=1;" vertex="1" parent="WIyWlLk6GJQsqaUBKTNV-1">
          <mxGeometry x="440" y="440" width="140" height="30" as="geometry" />
        </mxCell>
        <mxCell id="sDPCMtmViMHlwdPmjDIe-64" style="edgeStyle=orthogonalEdgeStyle;rounded=0;orthogonalLoop=1;jettySize=auto;html=1;" edge="1" parent="WIyWlLk6GJQsqaUBKTNV-1" source="sDPCMtmViMHlwdPmjDIe-62" target="sDPCMtmViMHlwdPmjDIe-32">
          <mxGeometry relative="1" as="geometry" />
        </mxCell>
        <mxCell id="sDPCMtmViMHlwdPmjDIe-62" value="Число&amp;nbsp;&lt;div&gt;повт.&amp;nbsp;&lt;span style=&quot;background-color: initial;&quot;&gt;=4&lt;/span&gt;&lt;/div&gt;" style="rounded=0;whiteSpace=wrap;html=1;" vertex="1" parent="WIyWlLk6GJQsqaUBKTNV-1">
          <mxGeometry x="480" y="140" width="60" height="30" as="geometry" />
        </mxCell>
        <mxCell id="sDPCMtmViMHlwdPmjDIe-69" style="edgeStyle=orthogonalEdgeStyle;rounded=0;orthogonalLoop=1;jettySize=auto;html=1;" edge="1" parent="WIyWlLk6GJQsqaUBKTNV-1" source="sDPCMtmViMHlwdPmjDIe-65" target="sDPCMtmViMHlwdPmjDIe-68">
          <mxGeometry relative="1" as="geometry" />
        </mxCell>
        <mxCell id="sDPCMtmViMHlwdPmjDIe-65" value="Завершение&lt;div&gt;строки &#39;$&#39;&lt;/div&gt;" style="rounded=0;whiteSpace=wrap;html=1;" vertex="1" parent="WIyWlLk6GJQsqaUBKTNV-1">
          <mxGeometry x="670" y="240" width="80" height="30" as="geometry" />
        </mxCell>
        <mxCell id="sDPCMtmViMHlwdPmjDIe-67" value="Ко&lt;span style=&quot;background-color: initial;&quot;&gt;нец цикла&lt;/span&gt;" style="text;html=1;align=center;verticalAlign=middle;whiteSpace=wrap;rounded=0;" vertex="1" parent="WIyWlLk6GJQsqaUBKTNV-1">
          <mxGeometry x="550" y="190" width="75" height="10" as="geometry" />
        </mxCell>
        <mxCell id="sDPCMtmViMHlwdPmjDIe-68" value="Конец&lt;div&gt;HEXADR&lt;/div&gt;" style="rounded=1;whiteSpace=wrap;html=1;fontSize=12;glass=0;strokeWidth=1;shadow=0;" vertex="1" parent="WIyWlLk6GJQsqaUBKTNV-1">
          <mxGeometry x="670" y="290" width="80" height="30" as="geometry" />
        </mxCell>
        <mxCell id="sDPCMtmViMHlwdPmjDIe-72" style="edgeStyle=orthogonalEdgeStyle;rounded=0;orthogonalLoop=1;jettySize=auto;html=1;" edge="1" parent="WIyWlLk6GJQsqaUBKTNV-1" source="sDPCMtmViMHlwdPmjDIe-70" target="sDPCMtmViMHlwdPmjDIe-71">
          <mxGeometry relative="1" as="geometry" />
        </mxCell>
        <mxCell id="sDPCMtmViMHlwdPmjDIe-70" value="Начало&lt;div&gt;SIMPER&lt;/div&gt;" style="rounded=1;whiteSpace=wrap;html=1;fontSize=12;glass=0;strokeWidth=1;shadow=0;" vertex="1" parent="WIyWlLk6GJQsqaUBKTNV-1">
          <mxGeometry x="470" y="510" width="80" height="30" as="geometry" />
        </mxCell>
        <mxCell id="sDPCMtmViMHlwdPmjDIe-76" style="edgeStyle=orthogonalEdgeStyle;rounded=0;orthogonalLoop=1;jettySize=auto;html=1;" edge="1" parent="WIyWlLk6GJQsqaUBKTNV-1" source="sDPCMtmViMHlwdPmjDIe-71" target="sDPCMtmViMHlwdPmjDIe-75">
          <mxGeometry relative="1" as="geometry" />
        </mxCell>
        <mxCell id="sDPCMtmViMHlwdPmjDIe-79" style="edgeStyle=orthogonalEdgeStyle;rounded=0;orthogonalLoop=1;jettySize=auto;html=1;entryX=0.5;entryY=0;entryDx=0;entryDy=0;exitX=1;exitY=0.5;exitDx=0;exitDy=0;" edge="1" parent="WIyWlLk6GJQsqaUBKTNV-1" source="sDPCMtmViMHlwdPmjDIe-71" target="sDPCMtmViMHlwdPmjDIe-78">
          <mxGeometry relative="1" as="geometry" />
        </mxCell>
        <mxCell id="sDPCMtmViMHlwdPmjDIe-71" value="Код символа&amp;nbsp;&lt;div&gt;в [30,39]h?&lt;/div&gt;" style="rhombus;whiteSpace=wrap;html=1;" vertex="1" parent="WIyWlLk6GJQsqaUBKTNV-1">
          <mxGeometry x="450" y="560" width="120" height="60" as="geometry" />
        </mxCell>
        <mxCell id="sDPCMtmViMHlwdPmjDIe-73" value="3" style="ellipse;whiteSpace=wrap;html=1;aspect=fixed;" vertex="1" parent="WIyWlLk6GJQsqaUBKTNV-1">
          <mxGeometry x="495" y="690" width="30" height="30" as="geometry" />
        </mxCell>
        <mxCell id="sDPCMtmViMHlwdPmjDIe-77" style="edgeStyle=orthogonalEdgeStyle;rounded=0;orthogonalLoop=1;jettySize=auto;html=1;" edge="1" parent="WIyWlLk6GJQsqaUBKTNV-1" source="sDPCMtmViMHlwdPmjDIe-75" target="sDPCMtmViMHlwdPmjDIe-73">
          <mxGeometry relative="1" as="geometry" />
        </mxCell>
        <mxCell id="sDPCMtmViMHlwdPmjDIe-75" value="Код - 30h" style="rounded=1;whiteSpace=wrap;html=1;fontSize=12;glass=0;strokeWidth=1;shadow=0;" vertex="1" parent="WIyWlLk6GJQsqaUBKTNV-1">
          <mxGeometry x="470" y="640" width="80" height="30" as="geometry" />
        </mxCell>
        <mxCell id="sDPCMtmViMHlwdPmjDIe-82" style="edgeStyle=orthogonalEdgeStyle;rounded=0;orthogonalLoop=1;jettySize=auto;html=1;exitX=1;exitY=0.5;exitDx=0;exitDy=0;entryX=0.5;entryY=0;entryDx=0;entryDy=0;" edge="1" parent="WIyWlLk6GJQsqaUBKTNV-1" source="sDPCMtmViMHlwdPmjDIe-78" target="sDPCMtmViMHlwdPmjDIe-81">
          <mxGeometry relative="1" as="geometry" />
        </mxCell>
        <mxCell id="sDPCMtmViMHlwdPmjDIe-84" style="edgeStyle=orthogonalEdgeStyle;rounded=0;orthogonalLoop=1;jettySize=auto;html=1;" edge="1" parent="WIyWlLk6GJQsqaUBKTNV-1" source="sDPCMtmViMHlwdPmjDIe-78" target="sDPCMtmViMHlwdPmjDIe-83">
          <mxGeometry relative="1" as="geometry" />
        </mxCell>
        <mxCell id="sDPCMtmViMHlwdPmjDIe-78" value="Код символа&amp;nbsp;&lt;div&gt;в [A,F]?&lt;/div&gt;" style="rhombus;whiteSpace=wrap;html=1;" vertex="1" parent="WIyWlLk6GJQsqaUBKTNV-1">
          <mxGeometry x="560" y="610" width="120" height="60" as="geometry" />
        </mxCell>
        <mxCell id="sDPCMtmViMHlwdPmjDIe-86" style="edgeStyle=orthogonalEdgeStyle;rounded=0;orthogonalLoop=1;jettySize=auto;html=1;" edge="1" parent="WIyWlLk6GJQsqaUBKTNV-1" source="sDPCMtmViMHlwdPmjDIe-81" target="sDPCMtmViMHlwdPmjDIe-85">
          <mxGeometry relative="1" as="geometry" />
        </mxCell>
        <mxCell id="sDPCMtmViMHlwdPmjDIe-81" value="Код символа&amp;nbsp;&lt;div&gt;в [A,F]?&lt;/div&gt;" style="rhombus;whiteSpace=wrap;html=1;" vertex="1" parent="WIyWlLk6GJQsqaUBKTNV-1">
          <mxGeometry x="680" y="660" width="120" height="60" as="geometry" />
        </mxCell>
        <mxCell id="sDPCMtmViMHlwdPmjDIe-89" style="edgeStyle=orthogonalEdgeStyle;rounded=0;orthogonalLoop=1;jettySize=auto;html=1;" edge="1" parent="WIyWlLk6GJQsqaUBKTNV-1" source="sDPCMtmViMHlwdPmjDIe-83" target="sDPCMtmViMHlwdPmjDIe-87">
          <mxGeometry relative="1" as="geometry" />
        </mxCell>
        <mxCell id="sDPCMtmViMHlwdPmjDIe-83" value="Код - &#39;A&#39; + 10" style="rounded=1;whiteSpace=wrap;html=1;fontSize=12;glass=0;strokeWidth=1;shadow=0;" vertex="1" parent="WIyWlLk6GJQsqaUBKTNV-1">
          <mxGeometry x="580" y="690" width="80" height="30" as="geometry" />
        </mxCell>
        <mxCell id="sDPCMtmViMHlwdPmjDIe-90" style="edgeStyle=orthogonalEdgeStyle;rounded=0;orthogonalLoop=1;jettySize=auto;html=1;" edge="1" parent="WIyWlLk6GJQsqaUBKTNV-1" source="sDPCMtmViMHlwdPmjDIe-85" target="sDPCMtmViMHlwdPmjDIe-88">
          <mxGeometry relative="1" as="geometry" />
        </mxCell>
        <mxCell id="sDPCMtmViMHlwdPmjDIe-85" value="Код - &#39;a&#39; + 10" style="rounded=1;whiteSpace=wrap;html=1;fontSize=12;glass=0;strokeWidth=1;shadow=0;" vertex="1" parent="WIyWlLk6GJQsqaUBKTNV-1">
          <mxGeometry x="700" y="740" width="80" height="30" as="geometry" />
        </mxCell>
        <mxCell id="sDPCMtmViMHlwdPmjDIe-87" value="3" style="ellipse;whiteSpace=wrap;html=1;aspect=fixed;" vertex="1" parent="WIyWlLk6GJQsqaUBKTNV-1">
          <mxGeometry x="605" y="740" width="30" height="30" as="geometry" />
        </mxCell>
        <mxCell id="sDPCMtmViMHlwdPmjDIe-88" value="3" style="ellipse;whiteSpace=wrap;html=1;aspect=fixed;" vertex="1" parent="WIyWlLk6GJQsqaUBKTNV-1">
          <mxGeometry x="725" y="790" width="30" height="30" as="geometry" />
        </mxCell>
        <mxCell id="sDPCMtmViMHlwdPmjDIe-93" style="edgeStyle=orthogonalEdgeStyle;rounded=0;orthogonalLoop=1;jettySize=auto;html=1;" edge="1" parent="WIyWlLk6GJQsqaUBKTNV-1" source="sDPCMtmViMHlwdPmjDIe-91" target="sDPCMtmViMHlwdPmjDIe-92">
          <mxGeometry relative="1" as="geometry" />
        </mxCell>
        <mxCell id="sDPCMtmViMHlwdPmjDIe-91" value="3" style="ellipse;whiteSpace=wrap;html=1;aspect=fixed;" vertex="1" parent="WIyWlLk6GJQsqaUBKTNV-1">
          <mxGeometry x="495" y="740" width="30" height="30" as="geometry" />
        </mxCell>
        <mxCell id="sDPCMtmViMHlwdPmjDIe-92" value="Конец&lt;div&gt;SIMPER&lt;/div&gt;" style="rounded=1;whiteSpace=wrap;html=1;fontSize=12;glass=0;strokeWidth=1;shadow=0;" vertex="1" parent="WIyWlLk6GJQsqaUBKTNV-1">
          <mxGeometry x="470" y="790" width="80" height="30" as="geometry" />
        </mxCell>
        <mxCell id="sDPCMtmViMHlwdPmjDIe-96" style="edgeStyle=orthogonalEdgeStyle;rounded=0;orthogonalLoop=1;jettySize=auto;html=1;" edge="1" parent="WIyWlLk6GJQsqaUBKTNV-1" source="sDPCMtmViMHlwdPmjDIe-94" target="sDPCMtmViMHlwdPmjDIe-95">
          <mxGeometry relative="1" as="geometry" />
        </mxCell>
        <mxCell id="sDPCMtmViMHlwdPmjDIe-94" value="Начало&lt;div&gt;DECPRINT&lt;/div&gt;" style="rounded=1;whiteSpace=wrap;html=1;fontSize=12;glass=0;strokeWidth=1;shadow=0;" vertex="1" parent="WIyWlLk6GJQsqaUBKTNV-1">
          <mxGeometry x="100" y="460" width="80" height="30" as="geometry" />
        </mxCell>
        <mxCell id="sDPCMtmViMHlwdPmjDIe-98" style="edgeStyle=orthogonalEdgeStyle;rounded=0;orthogonalLoop=1;jettySize=auto;html=1;" edge="1" parent="WIyWlLk6GJQsqaUBKTNV-1" source="sDPCMtmViMHlwdPmjDIe-95" target="sDPCMtmViMHlwdPmjDIe-97">
          <mxGeometry relative="1" as="geometry" />
        </mxCell>
        <mxCell id="sDPCMtmViMHlwdPmjDIe-95" value="Число&amp;nbsp;&lt;span style=&quot;background-color: initial;&quot;&gt;повт.&amp;nbsp;&lt;/span&gt;&lt;span style=&quot;background-color: initial;&quot;&gt;= 4&lt;/span&gt;&lt;div&gt;&lt;span style=&quot;background-color: initial;&quot;&gt;Результат = 0&lt;/span&gt;&lt;/div&gt;&lt;div&gt;&lt;span style=&quot;background-color: initial;&quot;&gt;Множ-ль = 4096&lt;/span&gt;&lt;/div&gt;" style="rounded=0;whiteSpace=wrap;html=1;" vertex="1" parent="WIyWlLk6GJQsqaUBKTNV-1">
          <mxGeometry x="90" y="510" width="100" height="50" as="geometry" />
        </mxCell>
        <mxCell id="sDPCMtmViMHlwdPmjDIe-101" style="edgeStyle=orthogonalEdgeStyle;rounded=0;orthogonalLoop=1;jettySize=auto;html=1;" edge="1" parent="WIyWlLk6GJQsqaUBKTNV-1" source="sDPCMtmViMHlwdPmjDIe-97" target="sDPCMtmViMHlwdPmjDIe-100">
          <mxGeometry relative="1" as="geometry" />
        </mxCell>
        <mxCell id="sDPCMtmViMHlwdPmjDIe-108" style="edgeStyle=orthogonalEdgeStyle;rounded=0;orthogonalLoop=1;jettySize=auto;html=1;entryX=0.5;entryY=0;entryDx=0;entryDy=0;" edge="1" parent="WIyWlLk6GJQsqaUBKTNV-1" source="sDPCMtmViMHlwdPmjDIe-97" target="sDPCMtmViMHlwdPmjDIe-107">
          <mxGeometry relative="1" as="geometry" />
        </mxCell>
        <mxCell id="sDPCMtmViMHlwdPmjDIe-97" value="CPER" style="shape=hexagon;perimeter=hexagonPerimeter2;whiteSpace=wrap;html=1;fixedSize=1;" vertex="1" parent="WIyWlLk6GJQsqaUBKTNV-1">
          <mxGeometry x="80" y="577.5" width="120" height="30" as="geometry" />
        </mxCell>
        <mxCell id="sDPCMtmViMHlwdPmjDIe-103" style="edgeStyle=orthogonalEdgeStyle;rounded=0;orthogonalLoop=1;jettySize=auto;html=1;" edge="1" parent="WIyWlLk6GJQsqaUBKTNV-1" source="sDPCMtmViMHlwdPmjDIe-100" target="sDPCMtmViMHlwdPmjDIe-102">
          <mxGeometry relative="1" as="geometry" />
        </mxCell>
        <mxCell id="sDPCMtmViMHlwdPmjDIe-100" value="Прибавление&lt;div&gt;числа к результату&lt;/div&gt;" style="rounded=0;whiteSpace=wrap;html=1;" vertex="1" parent="WIyWlLk6GJQsqaUBKTNV-1">
          <mxGeometry x="80" y="632.5" width="120" height="40" as="geometry" />
        </mxCell>
        <mxCell id="sDPCMtmViMHlwdPmjDIe-105" style="edgeStyle=orthogonalEdgeStyle;rounded=0;orthogonalLoop=1;jettySize=auto;html=1;" edge="1" parent="WIyWlLk6GJQsqaUBKTNV-1" source="sDPCMtmViMHlwdPmjDIe-102" target="sDPCMtmViMHlwdPmjDIe-104">
          <mxGeometry relative="1" as="geometry" />
        </mxCell>
        <mxCell id="sDPCMtmViMHlwdPmjDIe-102" value="Домножение результата до соотв. разряда" style="rounded=0;whiteSpace=wrap;html=1;" vertex="1" parent="WIyWlLk6GJQsqaUBKTNV-1">
          <mxGeometry x="67.5" y="692.5" width="145" height="40" as="geometry" />
        </mxCell>
        <mxCell id="sDPCMtmViMHlwdPmjDIe-106" style="edgeStyle=orthogonalEdgeStyle;rounded=0;orthogonalLoop=1;jettySize=auto;html=1;entryX=0;entryY=0.5;entryDx=0;entryDy=0;" edge="1" parent="WIyWlLk6GJQsqaUBKTNV-1" source="sDPCMtmViMHlwdPmjDIe-104" target="sDPCMtmViMHlwdPmjDIe-97">
          <mxGeometry relative="1" as="geometry">
            <Array as="points">
              <mxPoint x="140" y="810" />
              <mxPoint x="50" y="810" />
              <mxPoint x="50" y="592" />
            </Array>
          </mxGeometry>
        </mxCell>
        <mxCell id="sDPCMtmViMHlwdPmjDIe-104" value="Сдвиг множителя&lt;div&gt;&amp;nbsp;на разряд&lt;/div&gt;" style="rounded=0;whiteSpace=wrap;html=1;" vertex="1" parent="WIyWlLk6GJQsqaUBKTNV-1">
          <mxGeometry x="90" y="750" width="100" height="40" as="geometry" />
        </mxCell>
        <mxCell id="sDPCMtmViMHlwdPmjDIe-110" style="edgeStyle=orthogonalEdgeStyle;rounded=0;orthogonalLoop=1;jettySize=auto;html=1;" edge="1" parent="WIyWlLk6GJQsqaUBKTNV-1" source="sDPCMtmViMHlwdPmjDIe-107" target="sDPCMtmViMHlwdPmjDIe-109">
          <mxGeometry relative="1" as="geometry" />
        </mxCell>
        <mxCell id="sDPCMtmViMHlwdPmjDIe-107" value="Число&amp;nbsp;&lt;span style=&quot;background-color: initial;&quot;&gt;повт.&amp;nbsp;&lt;/span&gt;&lt;span style=&quot;background-color: initial;&quot;&gt;= 5&lt;/span&gt;&lt;div&gt;&lt;span style=&quot;background-color: initial;&quot;&gt;Дел-ль = 10000&lt;/span&gt;&lt;/div&gt;" style="rounded=0;whiteSpace=wrap;html=1;" vertex="1" parent="WIyWlLk6GJQsqaUBKTNV-1">
          <mxGeometry x="260" y="620" width="100" height="40" as="geometry" />
        </mxCell>
        <mxCell id="sDPCMtmViMHlwdPmjDIe-115" style="edgeStyle=orthogonalEdgeStyle;rounded=0;orthogonalLoop=1;jettySize=auto;html=1;" edge="1" parent="WIyWlLk6GJQsqaUBKTNV-1" source="sDPCMtmViMHlwdPmjDIe-109" target="sDPCMtmViMHlwdPmjDIe-114">
          <mxGeometry relative="1" as="geometry" />
        </mxCell>
        <mxCell id="sDPCMtmViMHlwdPmjDIe-124" style="edgeStyle=orthogonalEdgeStyle;rounded=0;orthogonalLoop=1;jettySize=auto;html=1;exitX=0;exitY=0.5;exitDx=0;exitDy=0;" edge="1" parent="WIyWlLk6GJQsqaUBKTNV-1" source="sDPCMtmViMHlwdPmjDIe-109" target="sDPCMtmViMHlwdPmjDIe-123">
          <mxGeometry relative="1" as="geometry" />
        </mxCell>
        <mxCell id="sDPCMtmViMHlwdPmjDIe-109" value="MDEC" style="shape=hexagon;perimeter=hexagonPerimeter2;whiteSpace=wrap;html=1;fixedSize=1;" vertex="1" parent="WIyWlLk6GJQsqaUBKTNV-1">
          <mxGeometry x="250" y="680" width="120" height="30" as="geometry" />
        </mxCell>
        <mxCell id="sDPCMtmViMHlwdPmjDIe-112" value="PUTCH" style="rounded=1;whiteSpace=wrap;html=1;" vertex="1" parent="WIyWlLk6GJQsqaUBKTNV-1">
          <mxGeometry x="620" y="445" width="60" height="20" as="geometry" />
        </mxCell>
        <mxCell id="sDPCMtmViMHlwdPmjDIe-113" value="" style="endArrow=classic;startArrow=classic;html=1;rounded=0;" edge="1" parent="WIyWlLk6GJQsqaUBKTNV-1" source="sDPCMtmViMHlwdPmjDIe-59" target="sDPCMtmViMHlwdPmjDIe-112">
          <mxGeometry width="50" height="50" relative="1" as="geometry">
            <mxPoint x="570" y="480" as="sourcePoint" />
            <mxPoint x="620" y="430" as="targetPoint" />
          </mxGeometry>
        </mxCell>
        <mxCell id="sDPCMtmViMHlwdPmjDIe-120" style="edgeStyle=orthogonalEdgeStyle;rounded=0;orthogonalLoop=1;jettySize=auto;html=1;" edge="1" parent="WIyWlLk6GJQsqaUBKTNV-1" source="sDPCMtmViMHlwdPmjDIe-114" target="sDPCMtmViMHlwdPmjDIe-119">
          <mxGeometry relative="1" as="geometry" />
        </mxCell>
        <mxCell id="sDPCMtmViMHlwdPmjDIe-114" value="Деление рез-та на&lt;div&gt;делитель, вывод и запоминание&lt;/div&gt;" style="rounded=0;whiteSpace=wrap;html=1;" vertex="1" parent="WIyWlLk6GJQsqaUBKTNV-1">
          <mxGeometry x="250" y="730" width="120" height="50" as="geometry" />
        </mxCell>
        <mxCell id="sDPCMtmViMHlwdPmjDIe-117" value="PUTCH" style="rounded=1;whiteSpace=wrap;html=1;" vertex="1" parent="WIyWlLk6GJQsqaUBKTNV-1">
          <mxGeometry x="390" y="745" width="60" height="20" as="geometry" />
        </mxCell>
        <mxCell id="sDPCMtmViMHlwdPmjDIe-118" value="" style="endArrow=classic;startArrow=classic;html=1;rounded=0;" edge="1" parent="WIyWlLk6GJQsqaUBKTNV-1" target="sDPCMtmViMHlwdPmjDIe-117">
          <mxGeometry width="50" height="50" relative="1" as="geometry">
            <mxPoint x="370" y="755" as="sourcePoint" />
            <mxPoint x="410" y="730" as="targetPoint" />
          </mxGeometry>
        </mxCell>
        <mxCell id="sDPCMtmViMHlwdPmjDIe-122" style="edgeStyle=orthogonalEdgeStyle;rounded=0;orthogonalLoop=1;jettySize=auto;html=1;entryX=1;entryY=0.5;entryDx=0;entryDy=0;" edge="1" parent="WIyWlLk6GJQsqaUBKTNV-1" source="sDPCMtmViMHlwdPmjDIe-119" target="sDPCMtmViMHlwdPmjDIe-109">
          <mxGeometry relative="1" as="geometry">
            <Array as="points">
              <mxPoint x="310" y="850" />
              <mxPoint x="460" y="850" />
              <mxPoint x="460" y="695" />
            </Array>
          </mxGeometry>
        </mxCell>
        <mxCell id="sDPCMtmViMHlwdPmjDIe-119" value="Деление делителя на 10" style="rounded=0;whiteSpace=wrap;html=1;" vertex="1" parent="WIyWlLk6GJQsqaUBKTNV-1">
          <mxGeometry x="260" y="800" width="100" height="30" as="geometry" />
        </mxCell>
        <mxCell id="sDPCMtmViMHlwdPmjDIe-123" value="Конец&lt;div&gt;DECPRINT&lt;/div&gt;" style="rounded=1;whiteSpace=wrap;html=1;fontSize=12;glass=0;strokeWidth=1;shadow=0;" vertex="1" parent="WIyWlLk6GJQsqaUBKTNV-1">
          <mxGeometry x="187.5" y="850" width="80" height="30" as="geometry" />
        </mxCell>
      </root>
    </mxGraphModel>
  </diagram>
</mxfile>
